# xmcd
#
# Track frame offsets:
#  150
#  29775
#  58900
#  89627
#  127720
#  152607
#  184092
#  211852
#  248605
#
# Disc length: 4067 seconds
#
# Revision: 0
# Processed by: cddbd v1.5.2PL0 Copyright (c) Steve Scherf et al.
# Submitted via: Collectorz.com_Music_Collector 6.11
#
DISCID=760fe109
DTITLE=Eric Clapton - Wired (2CDs) [CD1)
DYEAR=1991
DGENRE=Blues
TTITLE0=Pretending
TTITLE1=No Alibis
TTITLE2=Running On Faith
TTITLE3=I Shot The Sheriff
TTITLE4=White Room
TTITLE5=Can't Find My Way Home
TTITLE6=Bad Love
TTITLE7=Before You Accuse Me
TTITLE8=Old Love
EXTD=
EXTT0=
EXTT1=
EXTT2=
EXTT3=
EXTT4=
EXTT5=
EXTT6=
EXTT7=
EXTT8=
PLAYORDER=
